<svg width="78" height="31" viewBox="0 0 78 31" fill="none" xmlns="http://www.w3.org/2000/svg">
<g id="Come_Back_Alive_Ukrainian_logo_09.2022 1" clip-path="url(#clip0_39_72)">
<path id="path2" fill-rule="evenodd" clip-rule="evenodd" d="M15.2812 0H78V15.8262H58.2819V31H15.307V15.8465H0V0.0202881H15.2812V0ZM15.2812 0.59133H0.570109V15.2755H15.2812V0.59133ZM15.8771 15.8465V30.429H57.7118V15.8312H15.923V15.8465H15.8771ZM15.923 15.2552V0.571042H77.4299V15.2552H15.923Z" fill="white"/>
<path id="path4" fill-rule="evenodd" clip-rule="evenodd" d="M7.94118 11.6507C7.94118 11.6507 3.17668 6.62157 5.60246 4.97911C5.77075 4.84311 5.96477 4.74197 6.17302 4.68153C6.38123 4.62114 6.59956 4.60273 6.81506 4.62735C7.0306 4.65198 7.23894 4.71918 7.42795 4.82502C7.61695 4.93083 7.78278 5.07313 7.91564 5.24353C8.048 5.07327 8.21333 4.9311 8.40192 4.82534C8.59047 4.71959 8.79845 4.65239 9.01354 4.62776C9.22863 4.60309 9.4465 4.6215 9.65434 4.68185C9.86218 4.7422 10.0557 4.84325 10.2237 4.97911C12.6494 6.62157 7.94118 11.6507 7.94118 11.6507ZM7.90027 6.17917C7.75432 5.99511 7.59159 5.82489 7.41408 5.67067C7.22294 5.50685 6.98107 5.41292 6.72877 5.40461C6.47646 5.39629 6.22889 5.47405 6.02721 5.62489C5.9276 5.68652 5.84414 5.77071 5.78366 5.87062C5.72314 5.97049 5.68738 6.08323 5.67922 6.1995C5.67922 6.24527 5.67922 6.29105 5.67922 6.34189C5.67922 7.45044 6.89209 9.25562 7.94118 10.5015C8.96474 9.26074 10.1674 7.45044 10.1674 6.35715C10.1674 6.3063 10.1674 6.25546 10.1674 6.20461C10.16 6.08744 10.1246 5.97368 10.064 5.87286C10.0035 5.77204 9.91965 5.68702 9.81935 5.62489C9.63943 5.45427 9.40025 5.35902 9.1515 5.35902C8.9028 5.35902 8.66358 5.45427 8.48365 5.62489C8.27125 5.78282 8.08029 5.96743 7.91564 6.1741" fill="white"/>
<path id="path6" d="M25.3053 11.6507H24.2203V5.31472H22.4292V11.6507H21.3237V4.3689H25.3053V11.6507Z" fill="white"/>
<path id="path8" d="M27.168 5.76215C27.168 4.64342 28.1608 4.23663 29.0206 4.23663C29.8803 4.23663 30.8629 4.63327 30.8629 5.76215V10.2472C30.8629 11.3557 29.8701 11.7727 29.0206 11.7727C28.171 11.7727 27.168 11.3761 27.168 10.2472V5.76215ZM29.7575 5.76215C29.7575 5.34516 29.3583 5.19262 29.0206 5.19262C28.6828 5.19262 28.2733 5.33502 28.2733 5.76215V10.2472C28.2733 10.6642 28.6828 10.8167 29.0206 10.8167C29.3583 10.8167 29.7575 10.6642 29.7575 10.2472V5.76215Z" fill="white"/>
<path id="path10" d="M32.5415 11.6506V4.36881H34.5886C34.7914 4.34832 34.9963 4.37002 35.1903 4.43253C35.3842 4.49503 35.5629 4.59696 35.715 4.73186C35.8672 4.86677 35.9893 5.03164 36.0738 5.21601C36.1583 5.40039 36.2032 5.60021 36.2057 5.80277V6.68761C36.1967 6.91379 36.1358 7.1349 36.0276 7.33408C35.9193 7.53325 35.7667 7.70521 35.5814 7.83682C35.8351 7.93531 36.052 8.10937 36.2022 8.33518C36.3525 8.56095 36.4288 8.82737 36.4207 9.09791V9.99289C36.4319 10.214 36.396 10.4349 36.3154 10.6412C36.2347 10.8475 36.1111 11.0346 35.9527 11.1901C35.7942 11.3457 35.6044 11.4662 35.3958 11.5438C35.1872 11.6214 34.9644 11.6543 34.7421 11.6405L32.5415 11.6506ZM35.1003 5.91465C35.109 5.83329 35.0994 5.75106 35.0722 5.67381C35.0451 5.5966 35.0011 5.5263 34.9433 5.46796C34.8856 5.40962 34.8156 5.36471 34.7383 5.33644C34.661 5.30816 34.5785 5.29724 34.4965 5.30446H33.6674V7.41987H34.4555C34.5373 7.42613 34.6195 7.41457 34.6963 7.38597C34.7732 7.35742 34.8428 7.31247 34.9003 7.25436C34.9579 7.1962 35.0019 7.12631 35.0294 7.04947C35.0568 6.97268 35.0671 6.89081 35.0594 6.80963L35.1003 5.91465ZM35.3152 9.09791C35.3209 8.99763 35.3047 8.89736 35.2676 8.80389C35.2306 8.71047 35.1737 8.62605 35.1008 8.55652C35.0279 8.48699 34.9407 8.4339 34.8452 8.40096C34.7497 8.36803 34.6482 8.35597 34.5476 8.36565H33.6674V10.715H34.5476C34.6479 10.7272 34.7496 10.7172 34.8455 10.6859C34.9414 10.6545 35.0291 10.6024 35.1025 10.5335C35.1758 10.4645 35.2329 10.3803 35.2697 10.2868C35.3065 10.1933 35.322 10.093 35.3152 9.99289V9.09791Z" fill="white"/>
<path id="path12" d="M41.3442 11.6507H38.0996V4.3689H41.3442V5.31472H39.205V7.41994H40.9757V8.36577H39.205V10.6947H41.3442V11.6507Z" fill="white"/>
<path id="path14" d="M43.0635 11.6507V4.3689H44.957C46.1237 4.3689 46.8712 4.99946 46.8712 6.169V7.06398C46.8712 8.22338 46.1237 8.8539 44.957 8.8539H44.1791V11.6507H43.0635ZM45.7657 6.17918C45.7757 6.06877 45.7625 5.95748 45.726 5.85269C45.6895 5.74784 45.6311 5.65191 45.5549 5.57114C45.4784 5.49037 45.3856 5.42664 45.2825 5.3842C45.1795 5.34176 45.0685 5.32153 44.957 5.32491H44.1791V7.92844H44.9672C45.0785 7.93096 45.1891 7.91022 45.2918 7.86746C45.3945 7.82474 45.4869 7.76101 45.5632 7.68043C45.6393 7.59984 45.6977 7.50423 45.7346 7.3998C45.7711 7.29532 45.7853 7.18435 45.7757 7.07417L45.7657 6.17918Z" fill="white"/>
<path id="path16" d="M52.3059 11.6507H51.2003V8.36577H49.4298V11.6507H48.3242V4.3689H49.4298V7.41994H51.2003V4.3689H52.3059V11.6507Z" fill="white"/>
<path id="path18" d="M57.1984 11.6507V7.07417L55.3457 11.6507H54.3223V4.3689H55.4379V8.94545L57.2905 4.3689H58.3139V11.6507H57.1984Z" fill="white"/>
<path id="path20" d="M39.5897 33.8817H40.6952V35.0207C40.6952 36.1293 39.7023 36.5462 38.8526 36.5462C38.0034 36.5462 37 36.1496 37 35.0207V30.5255C37 29.4068 37.9929 29 38.8526 29C39.7124 29 40.6952 29.3966 40.6952 30.5255V31.6748H39.5897V30.5255C39.5897 30.1086 39.1906 29.956 38.8526 29.956C38.5151 29.956 38.1056 30.0984 38.1056 30.5255V35.0207C38.1056 35.4377 38.5151 35.5902 38.8526 35.5902C39.1906 35.5902 39.5897 35.4377 39.5897 35.0207V33.8817Z" fill="white"/>
<path id="path24" d="M27.0863 26.9008L25.4691 23.6108H25.1928V26.9008H24.0873V23.6108H23.8212L22.1733 26.9008H21.0986V26.7177L22.7772 23.1938L21.1805 19.797V19.6139H22.2859L23.77 22.6649H24.0873V19.6139H25.1928V22.6649H25.5203L26.9942 19.6139H28.0996V19.797L26.5233 23.1938L28.1917 26.7177V26.9008H27.0863Z" fill="white"/>
<path id="path26" d="M32.4083 26.9008V22.3242L30.5557 26.9008H29.5322V19.6139H30.6376V24.1904L32.4902 19.6139H33.5137V26.9008H32.4083Z" fill="white"/>
<path id="path28" d="M35.3257 26.9007V19.6138H37.3727C37.5756 19.5933 37.7805 19.615 37.9745 19.6775C38.1684 19.74 38.3471 19.842 38.4992 19.9769C38.6513 20.1118 38.7735 20.2766 38.858 20.461C38.9425 20.6454 38.9874 20.8452 38.9899 21.0478V21.9427C38.9809 22.1689 38.9199 22.3901 38.8117 22.5893C38.7035 22.7884 38.5509 22.9604 38.3656 23.092C38.6193 23.1905 38.8361 23.3646 38.9864 23.5903C39.1367 23.8161 39.213 24.0825 39.2048 24.3531V25.2531C39.2161 25.4742 39.1802 25.6951 39.0996 25.9014C39.0189 26.1077 38.8953 26.2948 38.7369 26.4504C38.5784 26.6059 38.3886 26.7264 38.18 26.804C37.9714 26.8817 37.7486 26.9146 37.5263 26.9007H35.3257ZM37.8845 21.1596C37.8931 21.0783 37.8836 20.9961 37.8564 20.9188C37.8292 20.8416 37.7852 20.7713 37.7275 20.713C37.6697 20.6546 37.5997 20.6097 37.5225 20.5814C37.4452 20.5532 37.3627 20.5422 37.2806 20.5495H36.4516V22.6648H37.2806C37.3624 22.6711 37.4446 22.6596 37.5215 22.631C37.5983 22.6024 37.6679 22.5575 37.7254 22.4994C37.783 22.4412 37.827 22.3713 37.8545 22.2945C37.882 22.2177 37.8922 22.1358 37.8845 22.0546V21.1596ZM38.0994 24.3429C38.1051 24.2426 38.0888 24.1424 38.0518 24.0489C38.0148 23.9555 37.9579 23.871 37.885 23.8015C37.812 23.732 37.7248 23.6789 37.6294 23.646C37.5339 23.613 37.4324 23.601 37.3318 23.6106H36.4516V25.965H37.3318C37.4323 25.9764 37.5341 25.9657 37.63 25.9337C37.7259 25.9018 37.8136 25.8492 37.8868 25.7799C37.96 25.7105 38.017 25.626 38.0537 25.5324C38.0905 25.4387 38.1061 25.3382 38.0994 25.2379V24.3429Z" fill="white"/>
<path id="path30" d="M43.5445 26.9009V22.3243L41.692 26.9009H40.6685V19.614H41.7738V24.1905L43.6264 19.614H44.65V26.9009H43.5445Z" fill="white"/>
<path id="path32" d="M50.5145 26.9009V21.9429L49.0405 24.8516L47.5719 21.9429V26.9212H46.4663V19.614H47.4898L49.0254 22.726L50.5912 19.614H51.5841V26.9009H50.5145Z" fill="white"/>
</g>
<defs>
<clipPath id="clip0_39_72">
<rect width="78" height="31" fill="white"/>
</clipPath>
</defs>
</svg>
