<svg width="18" height="18" viewBox="0 0 18 18" fill="none" xmlns="http://www.w3.org/2000/svg">
<g id="ph:music-notes">
<path id="Vector" d="M14.9709 1.80636C14.9036 1.75385 14.8251 1.71739 14.7415 1.69972C14.658 1.68206 14.5715 1.68366 14.4886 1.7044L5.4886 3.9544C5.36691 3.98482 5.25887 4.05504 5.18167 4.1539C5.10447 4.25276 5.06252 4.37459 5.0625 4.50003V12.24C4.59326 11.9265 4.0327 11.7788 3.46989 11.8203C2.90707 11.8619 2.37429 12.0903 1.95617 12.4694C1.53806 12.8484 1.2586 13.3563 1.16221 13.9123C1.06581 14.4684 1.15799 15.0407 1.42412 15.5384C1.69025 16.036 2.11505 16.4305 2.63103 16.659C3.14702 16.8876 3.72459 16.9372 4.27199 16.7999C4.81938 16.6626 5.3052 16.3464 5.65226 15.9014C5.99932 15.4564 6.18771 14.9081 6.1875 14.3438V8.31448L14.0625 6.34573V9.99003C13.5933 9.6765 13.0327 9.52878 12.4699 9.57033C11.9071 9.61188 11.3743 9.84032 10.9562 10.2194C10.5381 10.5984 10.2586 11.1063 10.1622 11.6623C10.0658 12.2184 10.158 12.7907 10.4241 13.2884C10.6902 13.786 11.115 14.1805 11.631 14.409C12.147 14.6376 12.7246 14.6872 13.272 14.5499C13.8194 14.4126 14.3052 14.0964 14.6523 13.6514C14.9993 13.2064 15.1877 12.6581 15.1875 12.0938V2.25003C15.1875 2.16447 15.168 2.08004 15.1305 2.00316C15.093 1.92628 15.0384 1.85897 14.9709 1.80636ZM3.65625 15.75C3.37812 15.75 3.10624 15.6676 2.87498 15.513C2.64373 15.3585 2.46348 15.1389 2.35705 14.8819C2.25061 14.625 2.22276 14.3422 2.27702 14.0694C2.33128 13.7966 2.46522 13.5461 2.66188 13.3494C2.85855 13.1527 3.10912 13.0188 3.38191 12.9645C3.65469 12.9103 3.93744 12.9381 4.1944 13.0446C4.45136 13.151 4.67099 13.3312 4.82551 13.5625C4.98003 13.7938 5.0625 14.0656 5.0625 14.3438C5.0625 14.7167 4.91435 15.0744 4.65062 15.3381C4.3869 15.6019 4.02921 15.75 3.65625 15.75ZM6.1875 7.15432V4.93948L14.0625 2.97073V5.18557L6.1875 7.15432ZM12.6563 13.5C12.3781 13.5 12.1062 13.4176 11.875 13.263C11.6437 13.1085 11.4635 12.8889 11.357 12.6319C11.2506 12.375 11.2228 12.0922 11.277 11.8194C11.3313 11.5466 11.4652 11.2961 11.6619 11.0994C11.8586 10.9027 12.1091 10.7688 12.3819 10.7145C12.6547 10.6603 12.9374 10.6881 13.1944 10.7946C13.4514 10.901 13.671 11.0812 13.8255 11.3125C13.98 11.5438 14.0625 11.8156 14.0625 12.0938C14.0625 12.2784 14.0261 12.4613 13.9555 12.6319C13.8848 12.8025 13.7812 12.9576 13.6506 13.0881C13.52 13.2187 13.365 13.3223 13.1944 13.393C13.0238 13.4637 12.8409 13.5 12.6563 13.5Z" fill="#D6D4CB"/>
</g>
</svg>
