<svg width="122" height="12" viewBox="0 0 122 12" fill="none" xmlns="http://www.w3.org/2000/svg">
<g id="logo 1" clip-path="url(#clip0_39_70)">
<path id="Vector" d="M36.0154 1.84379H42.1308V11.628H36.0154V1.84379ZM10.7747 5.98098C10.7747 7.37859 10.032 8.03631 8.44494 8.03631C6.85796 8.03631 6.1144 7.37946 6.1144 5.98098V1.84379H0V6.21906C0 10.3143 2.20841 11.7676 8.44494 11.7676C14.6815 11.7676 16.8899 10.3117 16.8899 6.21906V1.84379H10.7747V5.98098ZM42.7769 5.4783H47.8934V11.628H54.0087V5.4783H59.1255V1.84379H42.7769V5.4783ZM29.2005 6.91788L24.4188 1.84379H17.6739V11.628H23.7074V6.55389L28.4849 11.628H35.2331V1.84379H29.2005V6.91788ZM106.498 3.91368C106.498 1.24432 104.222 0 99.4274 0C94.2554 0 92.0733 1.42588 92.0733 4.836H96.8813C96.8813 3.66189 97.676 3.24228 99.2525 3.24228C100.787 3.24228 101.273 3.5223 101.273 3.95562C101.273 4.52856 101.098 4.52856 97.2288 5.46459C92.9464 6.51279 91.6171 8.58183 91.6171 10.5806V11.6288H106.15V8.4525H97.6497C98.1623 7.94895 99.6162 7.80936 102.836 7.16793C104.976 6.75 106.498 5.98098 106.498 3.91368ZM59.7748 11.628H73.688V8.70942H65.6218V7.88472H71.3599V5.58963H65.6218V4.76493H73.6897V1.84379H59.7748V11.628ZM122 6.42888V9.69939H119.818V11.628H114.849V9.69939H106.647V6.39717L112.533 0.387087H119.819V6.42546L122 6.42888ZM114.848 3.21402L111.712 6.42888H114.848V3.21402ZM91.8174 6.73974C91.8174 10.024 89.8238 11.6314 85.7154 11.6314H74.4697V1.84379H85.7154C89.8238 1.84379 91.8174 3.45123 91.8174 6.73974ZM85.8507 6.73974C85.8507 5.63499 85.2575 5.11776 84.0187 5.11776H80.4362V8.36088H84.0187C85.2575 8.35746 85.8507 7.8402 85.8507 6.73974Z" fill="white"/>
</g>
<defs>
<clipPath id="clip0_39_70">
<rect width="122" height="12" fill="white"/>
</clipPath>
</defs>
</svg>
