<svg width="694" height="364" viewBox="0 0 694 364" fill="none" xmlns="http://www.w3.org/2000/svg">
<g clip-path="url(#clip0_13_14)">
<path d="M531.23 159.962H571.449V1.71816C571.449 0.654278 570.385 -0.661865 568.543 -0.661865H533.61C532.546 -0.661865 531.23 0.12782 530.693 0.917506L458.458 155.992L382.517 0.917506C382.243 0.12782 380.663 -0.661865 379.863 -0.661865H344.404C342.55 -0.661865 341.76 0.654278 341.76 1.71816V208.649C341.76 209.702 342.55 211.029 344.404 211.029H379.336C380.926 211.029 382.243 209.702 382.243 208.649V89.8339L439.67 200.971C439.934 201.772 441.524 202.562 442.314 202.562H474.866C475.656 202.562 476.983 201.772 477.246 200.971L531.23 92.7404V159.962Z" fill="#00BFFF"/>
<path d="M150.15 255.865L133.128 307.897H120.186L108.736 272.668L96.9342 307.897H84.0798L66.97 255.865H79.4733L91.2309 292.454L103.471 255.865H114.614L126.503 292.717L138.612 255.865H150.15Z" fill="#00BFFF"/>
<path d="M214.269 298.245V307.897H173.995V255.865H213.304V265.517H185.928V276.836H210.101V286.181H185.928V298.245H214.269Z" fill="#00BFFF"/>
<path d="M278.072 280.828C281.055 281.793 283.381 283.373 285.048 285.566C286.737 287.76 287.592 290.469 287.592 293.683C287.592 298.245 285.815 301.755 282.284 304.212C278.741 306.668 273.575 307.897 266.797 307.897H239.904V255.865H265.305C271.645 255.865 276.515 257.083 279.915 259.507C283.304 261.942 285.004 265.243 285.004 269.422C285.004 271.944 284.39 274.193 283.161 276.178C281.955 278.141 280.266 279.688 278.072 280.828ZM251.837 264.947V277.187H263.814C266.797 277.187 269.046 276.682 270.57 275.651C272.117 274.598 272.895 273.063 272.895 271.045C272.895 269.005 272.117 267.48 270.57 266.482C269.046 265.462 266.797 264.947 263.814 264.947H251.837ZM265.92 298.815C269.078 298.815 271.458 298.311 273.071 297.28C274.672 296.227 275.484 294.626 275.484 292.454C275.484 288.133 272.292 285.961 265.92 285.961H251.837V298.815H265.92Z" fill="#00BFFF"/>
<path d="M360.134 307.897L360.046 276.704L344.735 302.413H339.295L324.072 277.362V307.897H312.797V255.865H322.755L342.19 288.199L361.362 255.865H371.277L371.409 307.897H360.134Z" fill="#00BFFF"/>
<path d="M434.069 296.754H409.896L405.29 307.897H392.962L416.126 255.865H428.015L451.311 307.897H438.676L434.069 296.754ZM430.252 287.628L422.005 267.711L413.757 287.628H430.252Z" fill="#00BFFF"/>
<path d="M472.773 255.865H484.793V298.07H510.897V307.897H472.773V255.865Z" fill="#00BFFF"/>
<path d="M533.704 255.865H545.724V307.897H533.704V255.865Z" fill="#00BFFF"/>
<path d="M593.081 287.453L586.062 294.735V307.897H574.129V255.865H586.062V280.17L609.094 255.865H622.475L600.934 279.073L623.747 307.897H609.709L593.081 287.453Z" fill="#00BFFF"/>
<path d="M577.776 355.035H693.618" stroke="#00BFFF" stroke-width="2.98321"/>
<path d="M0.62532 352.929H116.468" stroke="#00BFFF" stroke-width="2.98321"/>
<path d="M145.076 343.807H153.543C155.561 343.807 157.338 344.202 158.895 344.992C160.442 345.759 161.637 346.834 162.493 348.238C163.37 349.62 163.809 351.243 163.809 353.108C163.809 354.983 163.37 356.618 162.493 358.021C161.637 359.403 160.442 360.478 158.895 361.268C157.338 362.036 155.561 362.409 153.543 362.409H145.076V343.807ZM153.324 358.855C155.188 358.855 156.68 358.351 157.799 357.32C158.906 356.267 159.466 354.863 159.466 353.108C159.466 351.331 158.906 349.927 157.799 348.896C156.68 347.843 155.188 347.317 153.324 347.317H149.375V358.855H153.324Z" fill="#00BFFF"/>
<path d="M189.717 362.409V351.221L184.233 360.434H182.302L176.818 351.485V362.409H172.782V343.807H176.38L183.311 355.345L190.199 343.807H193.709L193.753 362.409H189.717Z" fill="#00BFFF"/>
<path d="M212.868 355.828V362.409H208.569V355.74L201.374 343.807H205.936L210.894 352.055L215.851 343.807H220.107L212.868 355.828Z" fill="#00BFFF"/>
<path d="M231.497 347.317H225.531V343.807H241.763V347.317H235.797V362.409H231.497V347.317Z" fill="#00BFFF"/>
<path d="M261.702 362.409L258.105 357.232H254.112V362.409H249.813V343.807H257.885C259.52 343.807 260.934 344.092 262.141 344.641C263.369 345.167 264.302 345.946 264.949 346.966C265.618 347.964 265.958 349.159 265.958 350.563C265.958 351.945 265.618 353.13 264.949 354.117C264.302 355.115 263.369 355.894 262.141 356.442L266.309 362.409H261.702ZM261.614 350.563C261.614 349.51 261.274 348.71 260.605 348.15C259.925 347.602 258.938 347.317 257.622 347.317H254.112V353.81H257.622C258.938 353.81 259.925 353.536 260.605 352.976C261.274 352.395 261.614 351.594 261.614 350.563Z" fill="#00BFFF"/>
<path d="M284.138 362.716C282.207 362.716 280.463 362.31 278.917 361.487C277.359 360.643 276.153 359.491 275.276 358.021C274.398 356.563 273.959 354.929 273.959 353.108C273.959 351.265 274.398 349.62 275.276 348.15C276.153 346.692 277.359 345.551 278.917 344.728C280.463 343.917 282.207 343.5 284.138 343.5C286.068 343.5 287.79 343.917 289.314 344.728C290.861 345.551 292.078 346.692 292.956 348.15C293.855 349.62 294.316 351.265 294.316 353.108C294.316 354.929 293.855 356.563 292.956 358.021C292.078 359.491 290.861 360.643 289.314 361.487C287.79 362.31 286.068 362.716 284.138 362.716ZM284.138 359.074C285.212 359.074 286.2 358.833 287.077 358.329C287.976 357.802 288.678 357.089 289.183 356.179C289.676 355.279 289.929 354.248 289.929 353.108C289.929 351.967 289.676 350.947 289.183 350.037C288.678 349.137 287.976 348.436 287.077 347.931C286.2 347.405 285.212 347.141 284.138 347.141C283.019 347.141 282.032 347.405 281.154 347.931C280.277 348.436 279.575 349.137 279.049 350.037C278.544 350.947 278.303 351.967 278.303 353.108C278.303 354.248 278.544 355.279 279.049 356.179C279.575 357.089 280.277 357.802 281.154 358.329C282.032 358.833 283.019 359.074 284.138 359.074Z" fill="#00BFFF"/>
<path d="M328.839 358.416H320.196L318.529 362.409H314.142L322.434 343.807H326.689L334.981 362.409H330.462L328.839 358.416ZM327.479 355.17L324.496 348.019L321.556 355.17H327.479Z" fill="#00BFFF"/>
<path d="M342.666 343.807H351.134C353.152 343.807 354.928 344.202 356.486 344.992C358.032 345.759 359.228 346.834 360.083 348.238C360.961 349.62 361.399 351.243 361.399 353.108C361.399 354.983 360.961 356.618 360.083 358.021C359.228 359.403 358.032 360.478 356.486 361.268C354.928 362.036 353.152 362.409 351.134 362.409H342.666V343.807ZM350.914 358.855C352.779 358.855 354.27 358.351 355.389 357.32C356.497 356.267 357.056 354.863 357.056 353.108C357.056 351.331 356.497 349.927 355.389 348.896C354.27 347.843 352.779 347.317 350.914 347.317H346.966V358.855H350.914Z" fill="#00BFFF"/>
<path d="M382.657 358.416H374.014L372.347 362.409H367.96L376.251 343.807H380.507L388.799 362.409H384.28L382.657 358.416ZM381.297 355.17L378.313 348.019L375.374 355.17H381.297Z" fill="#00BFFF"/>
<path d="M413.418 362.409V351.221L407.934 360.434H406.004L400.52 351.485V362.409H396.484V343.807H400.081L407.013 355.345L413.901 343.807H417.411L417.454 362.409H413.418Z" fill="#00BFFF"/>
<path d="M436.657 362.716C434.727 362.716 432.983 362.31 431.437 361.487C429.879 360.643 428.673 359.491 427.795 358.021C426.918 356.563 426.479 354.929 426.479 353.108C426.479 351.265 426.918 349.62 427.795 348.15C428.673 346.692 429.879 345.551 431.437 344.728C432.983 343.917 434.727 343.5 436.657 343.5C438.588 343.5 440.31 343.917 441.834 344.728C443.381 345.551 444.598 346.692 445.475 348.15C446.375 349.62 446.835 351.265 446.835 353.108C446.835 354.929 446.375 356.563 445.475 358.021C444.598 359.491 443.381 360.643 441.834 361.487C440.31 362.31 438.588 362.716 436.657 362.716ZM436.657 359.074C437.732 359.074 438.719 358.833 439.597 358.329C440.496 357.802 441.198 357.089 441.703 356.179C442.196 355.279 442.448 354.248 442.448 353.108C442.448 351.967 442.196 350.947 441.703 350.037C441.198 349.137 440.496 348.436 439.597 347.931C438.719 347.405 437.732 347.141 436.657 347.141C435.539 347.141 434.551 347.405 433.674 347.931C432.797 348.436 432.095 349.137 431.568 350.037C431.064 350.947 430.822 351.967 430.822 353.108C430.822 354.248 431.064 355.279 431.568 356.179C432.095 357.089 432.797 357.802 433.674 358.329C434.551 358.833 435.539 359.074 436.657 359.074Z" fill="#00BFFF"/>
<path d="M473.704 343.807L465.676 362.409H461.42L453.392 343.807H458.042L463.702 357.1L469.449 343.807H473.704Z" fill="#00BFFF"/>
<path d="M490.334 355.828V362.409H486.034V355.74L478.84 343.807H483.402L488.36 352.055L493.317 343.807H497.573L490.334 355.828Z" fill="#00BFFF"/>
<path d="M514.009 362.716C512.1 362.716 510.389 362.31 508.876 361.487C507.351 360.676 506.156 359.535 505.278 358.065C504.401 356.607 503.962 354.95 503.962 353.108C503.962 351.265 504.401 349.62 505.278 348.15C506.156 346.692 507.351 345.551 508.876 344.728C510.389 343.917 512.122 343.5 514.052 343.5C515.654 343.5 517.101 343.785 518.396 344.334C519.712 344.893 520.809 345.716 521.686 346.79L518.922 349.335C517.661 347.876 516.114 347.141 514.272 347.141C513.098 347.141 512.056 347.405 511.157 347.931C510.279 348.436 509.577 349.137 509.051 350.037C508.547 350.947 508.305 351.967 508.305 353.108C508.305 354.248 508.547 355.279 509.051 356.179C509.577 357.089 510.279 357.802 511.157 358.329C512.056 358.833 513.098 359.074 514.272 359.074C516.114 359.074 517.661 358.329 518.922 356.837L521.686 359.425C520.809 360.478 519.712 361.301 518.396 361.882C517.08 362.431 515.61 362.716 514.009 362.716Z" fill="#00BFFF"/>
<path d="M547.402 343.807V362.409H543.103V354.775H534.636V362.409H530.336V343.807H534.636V351.134H543.103V343.807H547.402Z" fill="#00BFFF"/>
<path d="M314.4 38.2302L287.408 111.002L245.599 0.917506C245.072 -0.135408 244.019 -0.661865 242.955 -0.661865H206.97C205.906 -0.661865 204.853 -0.135408 204.59 0.917506L162.517 111.002L135.789 38.2302H94.5055L160.126 209.438C160.927 211.555 164.36 211.555 165.16 209.438L224.957 52.5213L284.765 209.438C285.555 211.555 288.999 211.555 289.799 209.438L355.683 38.2302H314.4Z" fill="#00BFFF"/>
</g>
<defs>
<clipPath id="clip0_13_14">
<rect width="694" height="363.382" fill="white"/>
</clipPath>
</defs>
</svg>
