<svg width="30" height="30" viewBox="0 0 30 30" fill="none" xmlns="http://www.w3.org/2000/svg">
<g id="la:telegram">
<path id="Vector" d="M24.4408 3.74626C24.1398 3.76816 23.8444 3.83876 23.5661 3.95532H23.5623C23.2951 4.06126 22.0248 4.59563 20.0936 5.40563L13.173 8.32032C8.20702 10.4109 3.32545 12.4697 3.32545 12.4697L3.38358 12.4472C3.38358 12.4472 3.04702 12.5578 2.69545 12.7988C2.47826 12.937 2.29137 13.1178 2.14608 13.3303C1.97358 13.5834 1.83483 13.9706 1.88639 14.3709C1.97077 15.0478 2.40952 15.4538 2.72452 15.6778C3.04327 15.9047 3.34702 16.0106 3.34702 16.0106H3.35452L7.93233 17.5528C8.13764 18.2119 9.32733 22.1231 9.61327 23.0241C9.78202 23.5622 9.94608 23.8988 10.1514 24.1556C10.2508 24.2869 10.367 24.3966 10.5067 24.4847C10.5793 24.5269 10.6568 24.5603 10.7373 24.5841L10.6905 24.5728C10.7045 24.5766 10.7158 24.5878 10.7261 24.5916C10.7636 24.6019 10.7889 24.6056 10.8367 24.6131C11.5614 24.8325 12.1436 24.3825 12.1436 24.3825L12.1764 24.3563L14.8792 21.8953L19.4092 25.3706L19.5123 25.4147C20.4564 25.8291 21.4126 25.5984 21.918 25.1916C22.427 24.7819 22.6248 24.2578 22.6248 24.2578L22.6576 24.1734L26.1583 6.24001C26.2576 5.79751 26.283 5.38313 26.1733 4.98095C26.0601 4.57391 25.799 4.22383 25.4411 3.99938C25.1405 3.81668 24.792 3.72849 24.4408 3.74626ZM24.3461 5.66813C24.3423 5.7272 24.3536 5.72063 24.3273 5.83407V5.84438L20.8595 23.5913C20.8445 23.6166 20.8192 23.6719 20.7498 23.7272C20.6767 23.7853 20.6186 23.8219 20.3139 23.7009L14.7733 19.4531L11.4264 22.5038L12.1295 18.0131L21.182 9.57563C21.5551 9.22876 21.4305 9.15563 21.4305 9.15563C21.4567 8.73001 20.867 9.03095 20.867 9.03095L9.45202 16.1025L9.44827 16.0838L3.97702 14.2416V14.2378L3.96295 14.235C3.97255 14.2318 3.98194 14.2281 3.99108 14.2238L4.02108 14.2088L4.05014 14.1984C4.05014 14.1984 8.93545 12.1397 13.9014 10.0491C16.3876 9.00188 18.8926 7.9472 20.8192 7.13345C21.9618 6.65251 23.1055 6.17439 24.2505 5.69907C24.3273 5.66907 24.2908 5.66813 24.3461 5.66813Z" fill="#D6D4CB" fill-opacity="0.4"/>
</g>
</svg>
